# xmcd CD database file
#
# Track frame offsets:
#	150
#	17700
#	34502
#
# Disc length: 691 seconds
#
# Revision: 0
# Processed by: cddbd v1.5.1PL0 Copyright (c) Steve Scherf et al.
# Submitted via: CDex 1.50
#
DISCID=1702b103
DTITLE=大塚利恵 - 「いいよ。」
DYEAR=1998
DGENRE=JPop
TTITLE0=「いいよ。」
TTITLE1=夏気球
TTITLE2=体温計
EXTD=YEAR: 1998
EXTT0=
EXTT1=
EXTT2=
PLAYORDER=
